<svg xmlns="http://www.w3.org/2000/svg" viewBox="0 0 64 64" width="64" height="64"><defs><radialGradient id="face" cx="0.4" cy="0.35" r="0.7"><stop offset="0" stop-color="#2f8f89"/><stop offset="0.6" stop-color="#1d6a66"/><stop offset="1" stop-color="#10403d"/></radialGradient><linearGradient id="rim" x1="0" y1="0" x2="0" y2="1"><stop offset="0" stop-color="#f0d58c"/><stop offset="0.5" stop-color="#b08d3c"/><stop offset="1" stop-color="#7d6124"/></linearGradient></defs><circle cx="32" cy="32" r="31" fill="#0c0a07"/><circle cx="32" cy="32" r="30" fill="url(#rim)"/><circle cx="32" cy="32" r="25.5" fill="url(#face)"/><circle cx="32" cy="32" r="25.5" fill="none" stroke="#5c4a24" stroke-width="1"/><g transform="translate(32 32) scale(0.7) translate(-32 -32)"><circle cx="32" cy="22" r="16" fill="none" stroke="#08262a" stroke-width="6.2"/><path d="M32 12 L41 18 L39.5 28 L32 32 L24.5 28 L23 18 Z" fill="none" stroke="#08262a" stroke-width="6.2" stroke-linecap="round" stroke-linejoin="round"/><path d="M32 6 L32 12 M45.9 14 L41 18 M45.9 30 L39.5 28 M32 38 L32 32 M18.1 30 L24.5 28 M18.1 14 L23 18" fill="none" stroke="#08262a" stroke-width="6.2" stroke-linecap="round" stroke-linejoin="round"/><circle cx="32" cy="22" r="2.3" fill="none" stroke="#08262a" stroke-width="6.2"/><path d="M21 34 L18 47 M32 38 V51 M43 34 L46 47" fill="none" stroke="#08262a" stroke-width="6.2" stroke-linecap="round" stroke-linejoin="round"/><path d="M18 47 C14 51 15 57 18 60 C21 57 22 51 18 47 Z" fill="none" stroke="#08262a" stroke-width="6.2" stroke-linecap="round" stroke-linejoin="round"/><path d="M32 51 C28 55 29 61 32 63 C35 61 36 55 32 51 Z" fill="none" stroke="#08262a" stroke-width="6.2" stroke-linecap="round" stroke-linejoin="round"/><path d="M46 47 C42 51 43 57 46 60 C49 57 50 51 46 47 Z" fill="none" stroke="#08262a" stroke-width="6.2" stroke-linecap="round" stroke-linejoin="round"/></g><g transform="translate(32 32) scale(0.7) translate(-32 -32)"><circle cx="32" cy="22" r="16" fill="none" stroke="#f0d58c" stroke-width="4.0"/><path d="M32 12 L41 18 L39.5 28 L32 32 L24.5 28 L23 18 Z" fill="none" stroke="#f0d58c" stroke-width="4.0" stroke-linecap="round" stroke-linejoin="round"/><path d="M32 6 L32 12 M45.9 14 L41 18 M45.9 30 L39.5 28 M32 38 L32 32 M18.1 30 L24.5 28 M18.1 14 L23 18" fill="none" stroke="#f0d58c" stroke-width="4.0" stroke-linecap="round" stroke-linejoin="round"/><circle cx="32" cy="22" r="2.3" fill="none" stroke="#f0d58c" stroke-width="4.0"/><path d="M21 34 L18 47 M32 38 V51 M43 34 L46 47" fill="none" stroke="#f0d58c" stroke-width="4.0" stroke-linecap="round" stroke-linejoin="round"/><path d="M18 47 C14 51 15 57 18 60 C21 57 22 51 18 47 Z" fill="none" stroke="#f0d58c" stroke-width="4.0" stroke-linecap="round" stroke-linejoin="round"/><path d="M32 51 C28 55 29 61 32 63 C35 61 36 55 32 51 Z" fill="none" stroke="#f0d58c" stroke-width="4.0" stroke-linecap="round" stroke-linejoin="round"/><path d="M46 47 C42 51 43 57 46 60 C49 57 50 51 46 47 Z" fill="none" stroke="#f0d58c" stroke-width="4.0" stroke-linecap="round" stroke-linejoin="round"/></g></svg>